/* XPM */
static char * mountain_xpm[] = {
"64 64 6 1",
" 	c #EEB551",
".	c #353540",
"+	c #E8C65B",
"@	c #E39347",
"#	c #604B3D",
"$	c #735B42",
"                                                                ",
"                                                                ",
"                                                                ",
"                                                                ",
"                                                                ",
"                                                                ",
"                                                                ",
"                                                                ",
"          ............    ............    ............          ",
"          ............    ............    ............          ",
"          ..++++++++..    ..++++++++..    ..++++++++..          ",
"          ..++++++++..    ..++++++++..    ..++++++++..          ",
"          ..++++++++........++    ++........++++++++..          ",
"          ..++++++++........++    ++........++++++++..          ",
"          ..++++++++++++++++++    ++++++++++++++++++..          ",
"          ..++++++++++++++++++    ++++++++++++++++++..          ",
"      @@@@..++++++                            ++++++..@@@@      ",
"      @@@@..++++++                            ++++++..@@@@      ",
"      @@@@......++                            @@......@@@@      ",
"      @@@@......++                            @@......@@@@      ",
"      @@@@..##..++                            @@..##..@@@@      ",
"      @@@@..##..++                            @@..##..@@@@      ",
"      @@@@..$$..++                            @@..$$..@@@@      ",
"      @@@@..$$..++                            @@..$$..@@@@      ",
"      @@@@..$$..++                            @@..$$..@@@@      ",
"      @@@@..$$..++                            @@..$$..@@@@      ",
"      @@@@..$$..++                            @@..$$..@@@@      ",
"      @@@@..$$..++                            @@..$$..@@@@      ",
"      @@@@..$$..++                            @@..$$..@@@@      ",
"      @@@@..$$..++                            @@..$$..@@@@      ",
"      @@@@..$$..++                            @@..$$..@@@@      ",
"      @@@@..$$..++                            @@..$$..@@@@      ",
"      @@@@..$$..++                            @@..$$..@@@@      ",
"      @@@@..$$..++                            @@..$$..@@@@      ",
"        @@......++                            @@......@@        ",
"        @@......++                            @@......@@        ",
"        @@..@@@@@@                            @@@@@@..@@        ",
"        @@..@@@@@@                            @@@@@@..@@        ",
"        @@..@@@@@@@@@@@@@@@@@@    @@@@@@@@@@@@@@@@@@..@@        ",
"        @@..@@@@@@@@@@@@@@@@@@    @@@@@@@@@@@@@@@@@@..@@        ",
"        @@..@@@@@@@@........@@    @@........@@@@@@@@..@@        ",
"        @@..@@@@@@@@........@@    @@........@@@@@@@@..@@        ",
"        @@..@@@@@@@@..####..@@@@@@@@..####..@@@@@@@@..@@        ",
"        @@..@@@@@@@@..####..@@@@@@@@..####..@@@@@@@@..@@        ",
"      @@@@............$$$$............$$$$............@@@@      ",
"      @@@@............$$$$............$$$$............@@@@      ",
"      @@@@..##########$$$$############$$$$##########..@@@@      ",
"      @@@@..##########$$$$############$$$$##########..@@@@      ",
"      @@@@..$$$$$$$$##$$$$##$$$$$$$$##$$$$##$$$$$$$$..@@@@      ",
"      @@@@..$$$$$$$$##$$$$##$$$$$$$$##$$$$##$$$$$$$$..@@@@      ",
"      @@@@..$$$$$$$$........$$$$$$$$........$$$$$$$$..@@@@      ",
"      @@@@..$$$$$$$$........$$$$$$$$........$$$$$$$$..@@@@      ",
"      @@@@..$$$$$$$$..@@@@..$$$$$$$$..@@@@..$$$$$$$$..@@@@      ",
"      @@@@..$$$$$$$$..@@@@..$$$$$$$$..@@@@..$$$$$$$$..@@@@      ",
"      @@@@............@@@@............@@@@............@@@@      ",
"      @@@@............@@@@............@@@@............@@@@      ",
"      @@@@@@@@@@@@@@@@@@@@@@@@@@@@@@@@@@@@@@@@@@@@@@@@@@@@      ",
"      @@@@@@@@@@@@@@@@@@@@@@@@@@@@@@@@@@@@@@@@@@@@@@@@@@@@      ",
"      @@@@@@@@@@@@@@@@    @@@@@@@@@@@@    @@@@@@@@@@@@@@@@      ",
"      @@@@@@@@@@@@@@@@    @@@@@@@@@@@@    @@@@@@@@@@@@@@@@      ",
"                                                                ",
"                                                                ",
"                                                                ",
"                                                                "};
