/* XPM */
static char * hole_xpm[] = {
"64 64 6 1",
" 	c #EEB551",
".	c #E39347",
"+	c #353540",
"@	c #E8C65B",
"#	c #604B3D",
"$	c #735B42",
"                                                                ",
"                                                                ",
"                                                                ",
"                                                                ",
"                                                                ",
"                                                                ",
"      ................    ............    ................      ",
"      ................    ............    ................      ",
"      ..++++++++++++..    ..++++++++..    ..++++++++++++@@      ",
"      ..++++++++++++..    ..++++++++..    ..++++++++++++@@      ",
"      ..++########++........++####++........++########++@@      ",
"      ..++########++........++####++........++########++@@      ",
"      ..++$$$$$$$$++++++++++++$$$$++++++++++++$$$$$$$$++@@      ",
"      ..++$$$$$$$$++++++++++++$$$$++++++++++++$$$$$$$$++@@      ",
"      ..++$$$$$$$$############$$$$############$$$$$$$$++@@      ",
"      ..++$$$$$$$$############$$$$############$$$$$$$$++@@      ",
"      ..++$$$$$$$$##$$$$$$$$##$$$$##$$$$$$$$##$$$$$$$$++@@      ",
"      ..++$$$$$$$$##$$$$$$$$##$$$$##$$$$$$$$##$$$$$$$$++@@      ",
"      ..++++++++++++$$$$$$$$++++++++$$$$$$$$++++++++++++@@      ",
"      ..++++++++++++$$$$$$$$++++++++$$$$$$$$++++++++++++@@      ",
"      ......++....++$$$$$$$$++....++$$$$$$$$++....++@@@@@@      ",
"      ......++....++$$$$$$$$++....++$$$$$$$$++....++@@@@@@      ",
"          ..++....++++++++++++....++++++++++++....++@@          ",
"          ..++....++++++++++++....++++++++++++....++@@          ",
"          ..++....................................++@@          ",
"          ..++....................................++@@          ",
"      ......++................    ................++@@@@@@      ",
"      ......++................    ................++@@@@@@      ",
"      ..++++++....                            ....++++++@@      ",
"      ..++++++....                            ....++++++@@      ",
"      ..++##++....                            ....++##++@@      ",
"      ..++##++....                            ....++##++@@      ",
"      ..++$$++....                            ....++$$++@@      ",
"      ..++$$++....                            ....++$$++@@      ",
"      ..++++++....                            ....++++++@@      ",
"      ..++++++....                            ....++++++@@      ",
"      ......++....                            ....++@@@@@@      ",
"      ......++....                            ....++@@@@@@      ",
"          ..++....                            ....++@@          ",
"          ..++....                            ....++@@          ",
"          ..++..                                ..++@@          ",
"          ..++..                                ..++@@          ",
"      ......++..                                ..++@@@@@@      ",
"      ......++..                                ..++@@@@@@      ",
"      ..++++++....                            ....++++++@@      ",
"      ..++++++....                            ....++++++@@      ",
"      ..++##++....                            ....++##++@@      ",
"      ..++##++....                            ....++##++@@      ",
"      ..++$$++....                            ....++$$++@@      ",
"      ..++$$++....                            ....++$$++@@      ",
"      ..++$$++....++++++++++++    ++++++++++++....++$$++@@      ",
"      ..++$$++....++++++++++++    ++++++++++++....++$$++@@      ",
"      ..++$$++....++@@@@@@@@++    ++@@@@@@@@++....++$$++@@      ",
"      ..++$$++....++@@@@@@@@++    ++@@@@@@@@++....++$$++@@      ",
"      ..++++++++++++@@    @@++++++++@@    @@++++++++++++@@      ",
"      ..++++++++++++@@    @@++++++++@@    @@++++++++++++@@      ",
"      @@@@@@@@@@@@@@@@    @@@@@@@@@@@@    @@@@@@@@@@@@@@@@      ",
"      @@@@@@@@@@@@@@@@    @@@@@@@@@@@@    @@@@@@@@@@@@@@@@      ",
"                                                                ",
"                                                                ",
"                                                                ",
"                                                                ",
"                                                                ",
"                                                                "};
