/* XPM */
static char * stone_xpm[] = {
"64 64 6 1",
" 	c #EEB551",
".	c #353540",
"+	c #BFB8B4",
"@	c #EDE4DA",
"#	c #918D8D",
"$	c #E39347",
"                                                                ",
"                                                                ",
"                                                                ",
"                                                                ",
"                                                                ",
"                                                                ",
"                    ......................                      ",
"                    ......................                      ",
"                  ....++++++++++++++@@@@....                    ",
"                  ....++++++++++++++@@@@....                    ",
"                  ..++++++++++++++++++@@@@..                    ",
"                  ..++++++++++++++++++@@@@..                    ",
"                  ..++++++++++++++++++++++..                    ",
"                  ..++++++++++++++++++++++..                    ",
"                  ..++++++++++++++++++++++..                    ",
"                  ..++++++++++++++++++++++..                    ",
"                  ..++++++++++++++++++++++..                    ",
"                  ..++++++++++++++++++++++..                    ",
"                  ..++++++++++++++++++++++..                    ",
"                  ..++++++++++++++++++++++..                    ",
"                  ..++++++++++++++++++++++........              ",
"                  ..++++++++++++++++++++++........              ",
"                  ..++++++++++++++++++++++++@@@@....            ",
"                  ..++++++++++++++++++++++++@@@@....            ",
"              ......##++++++++++++++++++##++++@@@@..            ",
"              ......##++++++++++++++++++##++++@@@@..            ",
"            ....++++######################++++++++..            ",
"            ....++++######################++++++++..            ",
"            ..++++++++####################++++++++..            ",
"            ..++++++++####################++++++++..            ",
"            ..++++++++++################++++++++++..$$          ",
"            ..+++++++++++++####+++++####++++++++++..$$          ",
"            ..++++++++++++++++++++++++++++++++++++..$$          ",
"            ..++++++++++++++++++++++++++++++++++++..$$          ",
"            ..++++++++++++++++++++++++++++++++++++..$$          ",
"            ..++++++++++++++++++++++++++++++++++++..$$          ",
"          $$..##++++++++##++++++++++++##++++++++##..$$          ",
"          $$..##++++++++##++++++++++++##++++++++##..$$          ",
"          $$..############++++++++++++############..$$          ",
"          $$..############++++++++++++############..$$          ",
"          $$..############++++++++++++############..$$          ",
"          $$..############++++++++++++############..$$          ",
"          $$..############++++++++++++++##########..$$          ",
"          $$..############++++++++++++++##########..$$          ",
"          $$..##########++++++++++++++++++..######..$$          ",
"          $$..##########++++++++++++++++++..######..$$          ",
"          $$..######..++++++++++++++++++++..####....$$          ",
"          $$..######..++++++++++++++++++++..####....$$          ",
"          $$....####..##++++++++++++++++##........$$$$          ",
"          $$....####..##++++++++++++++++##........$$$$          ",
"          $$$$........####################..$$$$$$$$            ",
"          $$$$........####################..$$$$$$$$            ",
"            $$$$$$$$....################....$$                  ",
"            $$$$$$$$....################....$$                  ",
"                  $$$$....................$$$$                  ",
"                  $$$$....................$$$$                  ",
"                    $$$$$$$$$$$$$$$$$$$$$$$$                    ",
"                    $$$$$$$$$$$$$$$$$$$$$$$$                    ",
"                                                                ",
"                                                                ",
"                                                                ",
"                                                                ",
"                                                                ",
"                                                                "};
