/* XPM */
static char * e0_xpm[] = {
"64 64 9 1",
" 	c #EEB551",
".	c #353540",
"+	c #BFB8B4",
"@	c #EDE4DA",
"#	c #918D8D",
"$	c #636167",
"%	c #604B3D",
"&	c #735B42",
"*	c #E39347",
"                                                                ",
"                                                                ",
"                                                                ",
"                                                                ",
"            ........................................            ",
"            ........................................            ",
"            ..++++++++++++++++++++++++++++++++@@@@..            ",
"            ..++++++++++++++++++++++++++++++++@@@@..            ",
"        ......++++++++++++++++++++++++++++++++++++......        ",
"        ......++++++++++++++++++++++++++++++++++++......        ",
"        ..++..++++++++++++++++++++++++++++++++++++..@@..        ",
"        ..++..++++++++++++++++++++++++++++++++++++..@@..        ",
"        ..++..####################################..++..        ",
"        ..++..####################################..++..        ",
"      ....++..$$$$$$$$$$$$$$$$$$$$$$$$$$$$$$$$$$$$..++....      ",
"      ....++..$$$$$$$$$$$$$$$$$$$$$$$$$$$$$$$$$$$$..++....      ",
"      ..################################################..      ",
"      ..################################################..      ",
"      ..$$$$$$$$$$$$$$$$$$............$$$$$$$$$$$$$$$$$$..      ",
"      ..$$$$$$$$$$$$$$$$$$............$$$$$$$$$$$$$$$$$$..      ",
"      ..######$$##########..%%....%%..##########$$######..      ",
"      ..######$$##########..%%....%%..##########$$######..      ",
"      ..$$$$$$$$$$$$........%%....%%........$$$$$$$$$$$$..      ",
"      ..$$$$$$$$$$$$........%%....%%........$$$$$$$$$$$$..      ",
"  ......############..%%%%%%%%....%%%%%%%%..############......  ",
"  ......############..%%%%%%%%....%%%%%%%%..############......  ",
"....++..$$$$$$$$......&&&&&&&&....&&&&&&&&......$$$$$$$$..++....",
"....++..$$$$$$$$......&&&&&&&&....&&&&&&&&......$$$$$$$$..++....",
"..##++##########..%%%%%%%%&&&&....&&&&%%%%%%%%..##########++##..",
"..##++##########..%%%%%%%%&&&&....&&&&%%%%%%%%..##########++##..",
"..##$$$$$$$$$$$$..&&&&&&................&&&&&&..$$$$$$$$$$$$##..",
"..##$$$$$$$$$$$$..&&&&&&................&&&&&&..$$$$$$$$$$$$##..",
"..$$############..%%%%&&..**........**..&&%%%%..############$$..",
"..$$############..%%%%&&..**........**..&&%%%%..############$$..",
"..$$$$$$$$$$$$$$..&&&&&&................&&&&&&..$$$$$$$$$$$$$$..",
"..$$$$$$$$$$$$$$..&&&&&&................&&&&&&..$$$$$$$$$$$$$$..",
"##########$$####..&&&&%%%%&&&&....&&&&%%%%&&&&..####$$##########",
"##########$$####..&&&&%%%%&&&&....&&&&%%%%&&&&..####$$##########",
"$$$$$$$$$$$$$$$$..&&&&&&&&&&&&....&&&&&&&&&&&&..$$$$$$$$$$$$$$$$",
"$$$$$$$$$$$$$$$$..&&&&&&&&&&&&....&&&&&&&&&&&&..$$$$$$$$$$$$$$$$",
"################..%%%%%%%%%%%%....%%%%%%%%%%%%..################",
"################..%%%%%%%%%%%%....%%%%%%%%%%%%..################",
"$$$$$$$$$$$$$$$$................................$$$$$$$$$$$$$$$$",
"$$$$$$$$$$$$$$$$................................$$$$$$$$$$$$$$$$",
"####$$##########..                            ..##########$$####",
"####$$##########..                            ..##########$$####",
"$$$$$$$$$$$$$$$$..                            ..$$$$$$$$$$$$$$$$",
"$$$$$$$$$$$$$$$$..                            ..$$$$$$$$$$$$$$$$",
"                                                                ",
"                                                                ",
"                                                                ",
"                                                                ",
"                                                                ",
"                                                                ",
"                                                                ",
"                                                                ",
"                                                                ",
"                                                                ",
"                                                                ",
"                                                                ",
"                                                                ",
"                                                                ",
"                                                                ",
"                                                                "};
