/* XPM */
static char * e1_xpm[] = {
"64 64 9 1",
" 	c #EEB551",
".	c #353540",
"+	c #BFB8B4",
"@	c #EDE4DA",
"#	c #918D8D",
"$	c #636167",
"%	c #E39347",
"&	c #735B42",
"*	c #624D41",
"                                                                ",
"                                                                ",
"                                                                ",
"                                                                ",
"            ........................................            ",
"            ........................................            ",
"            ..++++++++++++++++++++++++++++++++@@@@..            ",
"            ..++++++++++++++++++++++++++++++++@@@@..            ",
"        ......++++++++++++++++++++++++++++++++++++......        ",
"        ......++++++++++++++++++++++++++++++++++++......        ",
"        ..++..++++++++++++++++++++++++++++++++++++..@@..        ",
"        ..++..++++++++++++++++++++++++++++++++++++..@@..        ",
"        ..++..####################################..++..        ",
"        ..++..####################################..++..        ",
"      ....++..$$$$$$$$$$$$$$$$$$$$$$$$$$$$$$$$$$$$..++....      ",
"      ....++..$$$$$$$$$$$$$$$$$$$$$$$$$$$$$$$$$$$$..++....      ",
"      ..################################################..      ",
"      ..################################################..      ",
"      ..$$$$$$$$$$$$$$$$$$............$$$$$$$$$$$$$$$$$$..      ",
"      ..$$$$$$$$$$$$$$$$$$............$$$$$$$$$$$$$$$$$$..      ",
"      ..######$$##########..        ..##########$$######..      ",
"      ..######$$##########..        ..##########$$######..      ",
"      ..$$$$$$$$$$$$........        ........$$$$$$$$$$$$..      ",
"      ..$$$$$$$$$$$$........        ........$$$$$$$$$$$$..      ",
"  ......############..                    ..############......  ",
"  ......############..                    ..############......  ",
"....++..$$$$$$$$......                    ......$$$$$$$$..++....",
"....++..$$$$$$$$......                    ......$$$$$$$$..++....",
"..##++##########......                    ......##########++##..",
"..##++##########......                    ......##########++##..",
"..##$$$$$$$$$$$$....                        ....$$$$$$$$$$$$##..",
"..##$$$$$$$$$$$$....                        ....$$$$$$$$$$$$##..",
"..$$############....%%                    %%....############$$..",
"..$$############....%%                    %%....############$$..",
"..$$$$$$$$$$$$$$......                    ......$$$$$$$$$$$$$$..",
"..$$$$$$$$$$$$$$......                    ......$$$$$$$$$$$$$$..",
"##########$$####..&&..                    ..&&..####$$##########",
"##########$$####..&&..                    ..&&..####$$##########",
"$$$$$$$$$$$$$$$$..&&..                    ..&&..$$$$$$$$$$$$$$$$",
"$$$$$$$$$$$$$$$$..&&..                    ..&&..$$$$$$$$$$$$$$$$",
"################..**..                    ..**..################",
"################..**..                    ..**..################",
"$$$$$$$$$$$$$$$$......                    ......$$$$$$$$$$$$$$$$",
"$$$$$$$$$$$$$$$$......                    ......$$$$$$$$$$$$$$$$",
"####$$##########..                            ..##########$$####",
"####$$##########..                            ..##########$$####",
"$$$$$$$$$$$$$$$$..                            ..$$$$$$$$$$$$$$$$",
"$$$$$$$$$$$$$$$$..                            ..$$$$$$$$$$$$$$$$",
"                                                                ",
"                                                                ",
"                                                                ",
"                                                                ",
"                                                                ",
"                                                                ",
"                                                                ",
"                                                                ",
"                                                                ",
"                                                                ",
"                                                                ",
"                                                                ",
"                                                                ",
"                                                                ",
"                                                                ",
"                                                                "};
