/* XPM */
static char * bottom_left_angle_xpm[] = {
"64 64 8 1",
" 	c #EEB551",
".	c #E39347",
"+	c #353540",
"@	c #E8C65B",
"#	c #604B3D",
"$	c #735B42",
"%	c #769FA6",
"&	c #5C699F",
"  ............    ............    ............  ................",
"  ............    ............    ............  ................",
"  ..++++++++..    ..++++++++..    ..++++++++..  ..++++++++++++@@",
"  ..++++++++..    ..++++++++..    ..++++++++..  ..++++++++++++@@",
"....++####++........++####++........++####++......++########++@@",
"....++####++........++####++........++####++......++########++@@",
"++++++$$$$++++++++++++$$$$++++++++++++$$$$++++++++++$$$$$$$$++@@",
"++++++$$$$++++++++++++$$$$++++++++++++$$$$++++++++++$$$$$$$$++@@",
"######$$$$############$$$$############$$$$##########$$$$$$$$++@@",
"######$$$$############$$$$############$$$$##########$$$$$$$$++@@",
"$$$$##$$$$##$$$$$$$$##$$$$##$$$$$$$$##$$$$##$$$$$$##$$$$++++++@@",
"$$$$##$$$$##$$$$$$$$##$$$$##$$$$$$$$##$$$$##$$$$$$##$$$$++++++@@",
"$$$$++++++++$$$$$$$$++++++++$$$$$$$$++++++++$$$$$$++++++++@@@@@@",
"$$$$++++++++$$$$$$$$++++++++$$$$$$$$++++++++$$$$$$++++++++@@@@@@",
"$$$$++%%%%++$$$$$$$$++%%%%++$$$$$$$$++%%%%++$$$$$$++%%%%++@@    ",
"$$$$++%%%%++$$$$$$$$++%%%%++$$$$$$$$++%%%%++$$$$$$++%%%%++@@    ",
"++++++%%%%++++++++++++%%%%++++++++++++%%%%++++++++++%%%%++@@    ",
"++++++%%%%++++++++++++%%%%++++++++++++%%%%++++++++++%%%%++@@    ",
"%%%%%%%%%%%%%%%%%%%%%%%%%%%%%%%%%%%%%%%%%%%%%%%%%%%%%%%%++@@@@@@",
"%%%%%%%%%%%%%%%%%%%%%%%%%%%%%%%%%%%%%%%%%%%%%%%%%%%%%%%%++@@@@@@",
"%%%%%%&&&&%%%%%%%%%%%%&&&&%%%%%%%%%%%%&&&&%%%%%%%%%%%%%%++++++@@",
"%%%%%%&&&&%%%%%%%%%%%%&&&&%%%%%%%%%%%%&&&&%%%%%%%%%%%%%%++++++@@",
"&&&&&&&&&&&&&&&&&&&&&&&&&&&&&&&&&&&&&&&&&&&&&&&&&&&&%%%%++##++@@",
"&&&&&&&&&&&&&&&&&&&&&&&&&&&&&&&&&&&&&&&&&&&&&&&&&&&&%%%%++##++@@",
"&&&&&&&&&&&&&&&&&&&&&&&&&&&&&&&&&&&&&&&&&&&&&&&&&&&&%%%%++$$++@@",
"&&&&&&&&&&&&&&&&&&&&&&&&&&&&&&&&&&&&&&&&&&&&&&&&&&&&%%%%++$$++@@",
"&&&&&&&&&&&&&&&&&&&&&&&&&&&&&&&&&&&&&&&&&&&&&&&&&&&&%%%%++++++@@",
"&&&&&&&&&&&&&&&&&&&&&&&&&&&&&&&&&&&&&&&&&&&&&&&&&&&&%%%%++++++@@",
"&&&&&&&&&&&&&&&&&&&&&&&&&&&&&&&&&&&&&&&&&&&&&&&&&&&&%%%%++@@@@@@",
"&&&&&&&&&&&&&&&&&&&&&&&&&&&&&&&&&&&&&&&&&&&&&&&&&&&&%%%%++@@@@@@",
"&&&&&&&&&&&&&&&&&&&&&&&&&&&&&&&&&&&&&&&&&&&&&&&&&&&&%%%%++@@    ",
"&&&&&&&&&&&&&&&&&&&&&&&&&&&&&&&&&&&&&&&&&&&&&&&&&&&&%%%%++@@    ",
"&&&&&&&&&&&&&&&&&&&&&&&&&&&&&&&&&&&&&&&&&&&&&&&&&&&&&&%%++@@    ",
"&&&&&&&&&&&&&&&&&&&&&&&&&&&&&&&&&&&&&&&&&&&&&&&&&&&&&&%%++@@    ",
"&&&&&&&&&&&&&&&&&&&&&&&&&&&&&&&&&&&&&&&&&&&&&&&&&&&&&&%%++@@@@@@",
"&&&&&&&&&&&&&&&&&&&&&&&&&&&&&&&&&&&&&&&&&&&&&&&&&&&&&&%%++@@@@@@",
"&&&&&&&&&&&&&&&&&&&&&&&&&&&&&&&&&&&&&&&&&&&&&&&&&&&&%%%%++++++@@",
"&&&&&&&&&&&&&&&&&&&&&&&&&&&&&&&&&&&&&&&&&&&&&&&&&&&&%%%%++++++@@",
"&&&&&&&&&&&&&&&&&&&&&&&&&&&&&&&&&&&&&&&&&&&&&&&&&&&&%%%%++##++@@",
"&&&&&&&&&&&&&&&&&&&&&&&&&&&&&&&&&&&&&&&&&&&&&&&&&&&&%%%%++##++@@",
"&&&&&&&&&&&&&&&&&&&&&&&&&&&&&&&&&&&&&&&&&&&&&&&&&&&&%%%%++$$++@@",
"&&&&&&&&&&&&&&&&&&&&&&&&&&&&&&&&&&&&&&&&&&&&&&&&&&&&%%%%++$$++@@",
"&&&&&&&&&&&&&&&&&&&&&&&&&&&&&&&&&&&&&&&&&&&&&&&&&&&&%%%%++++++@@",
"&&&&&&&&&&&&&&&&&&&&&&&&&&&&&&&&&&&&&&&&&&&&&&&&&&&&%%%%++++++@@",
"&&&&&&&&&&&&&&&&&&&&&&&&&&&&&&&&&&&&&&&&&&&&&&&&&&&&%%%%++@@@@@@",
"&&&&&&&&&&&&&&&&&&&&&&&&&&&&&&&&&&&&&&&&&&&&&&&&&&&&%%%%++@@@@@@",
"&&&&&&&&&&&&&&&&&&&&&&&&&&&&&&&&&&&&&&&&&&&&&&&&&&&&%%%%++@@    ",
"&&&&&&&&&&&&&&&&&&&&&&&&&&&&&&&&&&&&&&&&&&&&&&&&&&&&%%%%++@@    ",
"&&&&&&&&&&&&&&&&&&&&&&&&&&&&&&&&&&&&&&&&&&&&&&&&&&&&&&%%++@@    ",
"&&&&&&&&&&&&&&&&&&&&&&&&&&&&&&&&&&&&&&&&&&&&&&&&&&&&&&%%++@@    ",
"&&&&&&&&&&&&&&&&&&&&&&&&&&&&&&&&&&&&&&&&&&&&&&&&&&&&&&%%++@@@@@@",
"&&&&&&&&&&&&&&&&&&&&&&&&&&&&&&&&&&&&&&&&&&&&&&&&&&&&&&%%++@@@@@@",
"&&&&&&&&&&&&&&&&&&&&&&&&&&&&&&&&&&&&&&&&&&&&&&&&&&&&%%%%++++++@@",
"&&&&&&&&&&&&&&&&&&&&&&&&&&&&&&&&&&&&&&&&&&&&&&&&&&&&%%%%++++++@@",
"&&&&&&&&&&&&&&&&&&&&&&&&&&&&&&&&&&&&&&&&&&&&&&&&&&&&%%%%++##++@@",
"&&&&&&&&&&&&&&&&&&&&&&&&&&&&&&&&&&&&&&&&&&&&&&&&&&&&%%%%++##++@@",
"&&&&&&&&&&&&&&&&&&&&&&&&&&&&&&&&&&&&&&&&&&&&&&&&&&&&%%%%++$$++@@",
"&&&&&&&&&&&&&&&&&&&&&&&&&&&&&&&&&&&&&&&&&&&&&&&&&&&&%%%%++$$++@@",
"&&&&&&&&&&&&&&&&&&&&&&&&&&&&&&&&&&&&&&&&&&&&&&&&&&&&%%%%++++++@@",
"&&&&&&&&&&&&&&&&&&&&&&&&&&&&&&&&&&&&&&&&&&&&&&&&&&&&%%%%++++++@@",
"&&&&&&&&&&&&&&&&&&&&&&&&&&&&&&&&&&&&&&&&&&&&&&&&&&&&%%%%++@@@@@@",
"&&&&&&&&&&&&&&&&&&&&&&&&&&&&&&&&&&&&&&&&&&&&&&&&&&&&%%%%++@@@@@@",
"&&&&&&&&&&&&&&&&&&&&&&&&&&&&&&&&&&&&&&&&&&&&&&&&&&&&%%%%++@@    ",
"&&&&&&&&&&&&&&&&&&&&&&&&&&&&&&&&&&&&&&&&&&&&&&&&&&&&%%%%++@@    "};
