/* XPM */
static char * bottom_left_xpm[] = {
"64 64 6 1",
" 	c #5C699F",
".	c #769FA6",
"+	c #353540",
"@	c #E39347",
"#	c #604B3D",
"$	c #735B42",
"                                                    ....++@@@@@@",
"                                                    ....++@@@@@@",
"                                                      ..++@@@@@@",
"                                                      ..++@@@@@@",
"                                                      ..++@@@@@@",
"                                                      ..++@@@@@@",
"                                                    ....++++++++",
"                                                    ....++++++++",
"                                                    ....++######",
"                                                    ....++######",
"                                                    ....++$$$$$$",
"                                                    ....++$$$$$$",
"                                                    ....++$$$$$$",
"                                                    ....++$$$$$$",
"                                                    ....++$$$$$$",
"                                                    ....++$$$$$$",
"                                                    ....++++++++",
"                                                    ....++++++++",
"                                                    ............",
"                                                    ............",
"                                                    ............",
"                                                    ............",
"                                                                ",
"                                                                ",
"                                                                ",
"                                                                ",
"                                                                ",
"                                                                ",
"                                                                ",
"                                                                ",
"                                                                ",
"                                                                ",
"                                                                ",
"                                                                ",
"                                                                ",
"                                                                ",
"                                                                ",
"                                                                ",
"                                                                ",
"                                                                ",
"                                                                ",
"                                                                ",
"                                                                ",
"                                                                ",
"                                                                ",
"                                                                ",
"                                                                ",
"                                                                ",
"                                                                ",
"                                                                ",
"                                                                ",
"                                                                ",
"                                                                ",
"                                                                ",
"                                                                ",
"                                                                ",
"                                                                ",
"                                                                ",
"                                                                ",
"                                                                ",
"                                                                ",
"                                                                ",
"                                                                ",
"                                                                "};
