/* XPM */
static char * top_left_angle_xpm[] = {
"64 64 7 1",
" 	c #5C699F",
".	c #769FA6",
"+	c #353540",
"@	c #E8C65B",
"#	c #EEB551",
"$	c #604B3D",
"%	c #735B42",
"                                                    ....++@@####",
"                                                    ....++@@####",
"                                                    ....++@@@@@@",
"                                                    ....++@@@@@@",
"                                                    ....++++++@@",
"                                                    ....++++++@@",
"                                                    ....++$$++@@",
"                                                    ....++$$++@@",
"                                                    ....++%%++@@",
"                                                    ....++%%++@@",
"                                                    ....++++++@@",
"                                                    ....++++++@@",
"                                                    ....++@@@@@@",
"                                                    ....++@@@@@@",
"                                                    ....++@@####",
"                                                    ....++@@####",
"                                                      ..++@@####",
"                                                      ..++@@####",
"                                                      ..++@@@@@@",
"                                                      ..++@@@@@@",
"                                                    ....++++++@@",
"                                                    ....++++++@@",
"                                                    ....++$$++@@",
"                                                    ....++$$++@@",
"                                                    ....++%%++@@",
"                                                    ....++%%++@@",
"                                                    ....++++++@@",
"                                                    ....++++++@@",
"                                                    ....++@@@@@@",
"                                                    ....++@@@@@@",
"                                                    ....++@@####",
"                                                    ....++@@####",
"                                                      ..++@@####",
"                                                      ..++@@####",
"                                                      ..++@@@@@@",
"                                                      ..++@@@@@@",
"                                                    ....++++++@@",
"                                                    ....++++++@@",
"                                                    ....++$$++@@",
"                                                    ....++$$++@@",
"                                                    ....++%%++@@",
"                                                    ....++%%++@@",
"                                                    ....++++++@@",
"                                                    ....++++++@@",
"                                                    ....++@@@@@@",
"                                                    ....++@@@@@@",
"                                                    ....++@@####",
"                                                    ....++@@####",
"                                                      ..++@@####",
"                                                      ..++@@####",
"                                                      ..++@@@@@@",
"                                                      ..++@@@@@@",
"                                                    ....++++++@@",
"                                                    ....++++++@@",
"                                                    ....++$$++@@",
"                                                    ....++$$++@@",
"++++    ++++++++++++    ++++++++++++    ++++++++++++....++%%++@@",
"++++    ++++++++++++    ++++++++++++    ++++++++++++....++%%++@@",
"@@++    ++@@@@@@@@++    ++@@@@@@@@++    ++@@@@@@@@++....++%%++@@",
"@@++    ++@@@@@@@@++    ++@@@@@@@@++    ++@@@@@@@@++....++%%++@@",
"@@++++++++@@####@@++++++++@@####@@++++++++@@####@@++++++++++++@@",
"@@++++++++@@####@@++++++++@@####@@++++++++@@####@@++++++++++++@@",
"@@@@@@@@@@@@####@@@@@@@@@@@@####@@@@@@@@@@@@####@@@@@@@@@@@@@@@@",
"@@@@@@@@@@@@####@@@@@@@@@@@@####@@@@@@@@@@@@####@@@@@@@@@@@@@@@@"};
