/* XPM */
static char * top_xpm[] = {
"64 64 4 1",
" 	c #5C699F",
".	c #353540",
"+	c #E8C65B",
"@	c #EEB551",
"                                                                ",
"                                                                ",
"                                                                ",
"                                                                ",
"                                                                ",
"                                                                ",
"                                                                ",
"                                                                ",
"                                                                ",
"                                                                ",
"                                                                ",
"                                                                ",
"                                                                ",
"                                                                ",
"                                                                ",
"                                                                ",
"                                                                ",
"                                                                ",
"                                                                ",
"                                                                ",
"                                                                ",
"                                                                ",
"                                                                ",
"                                                                ",
"                                                                ",
"                                                                ",
"                                                                ",
"                                                                ",
"                                                                ",
"                                                                ",
"                                                                ",
"                                                                ",
"                                                                ",
"                                                                ",
"                                                                ",
"                                                                ",
"                                                                ",
"                                                                ",
"                                                                ",
"                                                                ",
"                                                                ",
"                                                                ",
"                                                                ",
"                                                                ",
"                                                                ",
"                                                                ",
"                                                                ",
"                                                                ",
"                                                                ",
"                                                                ",
"                                                                ",
"                                                                ",
"                                                                ",
"                                                                ",
"                                                                ",
"                                                                ",
"......    ............    ............    ............    ......",
"......    ............    ............    ............    ......",
"++++..    ..++++++++..    ..++++++++..    ..++++++++..    ..++++",
"++++..    ..++++++++..    ..++++++++..    ..++++++++..    ..++++",
"@@++........++@@@@++........++@@@@++........++@@@@++........++@@",
"@@++........++@@@@++........++@@@@++........++@@@@++........++@@",
"@@++++++++++++@@@@++++++++++++@@@@++++++++++++@@@@++++++++++++@@",
"@@++++++++++++@@@@++++++++++++@@@@++++++++++++@@@@++++++++++++@@"};
