/* XPM */
static char * to_right_angle_xpm[] = {
"64 64 7 1",
" 	c #EEB551",
".	c #E8C65B",
"+	c #353540",
"@	c #769FA6",
"#	c #5C699F",
"$	c #604B3D",
"%	c #735B42",
"    ..++@@@@####################################################",
"    ..++@@@@####################################################",
"......++@@@@####################################################",
"......++@@@@####################################################",
"..++++++@@@@####################################################",
"..++++++@@@@####################################################",
"..++$$++@@@@####################################################",
"..++$$++@@@@####################################################",
"..++%%++@@@@####################################################",
"..++%%++@@@@####################################################",
"..++++++@@@@####################################################",
"..++++++@@@@####################################################",
"......++@@@@####################################################",
"......++@@@@####################################################",
"    ..++@@@@####################################################",
"    ..++@@@@####################################################",
"    ..++@@######################################################",
"    ..++@@######################################################",
"......++@@######################################################",
"......++@@######################################################",
"..++++++@@@@####################################################",
"..++++++@@@@####################################################",
"..++$$++@@@@####################################################",
"..++$$++@@@@####################################################",
"..++%%++@@@@####################################################",
"..++%%++@@@@####################################################",
"..++++++@@@@####################################################",
"..++++++@@@@####################################################",
"......++@@@@####################################################",
"......++@@@@####################################################",
"    ..++@@@@####################################################",
"    ..++@@@@####################################################",
"    ..++@@######################################################",
"    ..++@@######################################################",
"......++@@######################################################",
"......++@@######################################################",
"..++++++@@@@####################################################",
"..++++++@@@@####################################################",
"..++$$++@@@@####################################################",
"..++$$++@@@@####################################################",
"..++%%++@@@@####################################################",
"..++%%++@@@@####################################################",
"..++++++@@@@####################################################",
"..++++++@@@@####################################################",
"......++@@@@####################################################",
"......++@@@@####################################################",
"    ..++@@@@####################################################",
"    ..++@@@@####################################################",
"    ..++@@######################################################",
"    ..++@@######################################################",
"......++@@######################################################",
"......++@@######################################################",
"..++++++@@@@####################################################",
"..++++++@@@@####################################################",
"..++$$++@@@@####################################################",
"..++$$++@@@@####################################################",
"..++%%++@@@@++++++++++++####++++++++++++####++++++++++++####++++",
"..++%%++@@@@++++++++++++####++++++++++++####++++++++++++####++++",
"..++%%++@@@@++........++####++........++####++........++####++..",
"..++%%++@@@@++........++####++........++####++........++####++..",
"..++++++++++++..    ..++++++++..    ..++++++++..    ..++++++++..",
"..++++++++++++..    ..++++++++..    ..++++++++..    ..++++++++..",
"................    ............    ............    ............",
"................    ............    ............    ............"};
