/* XPM */
static char * move_left_3_xpm[] = {
"40 48 8 1",
" 	c #EEB551",
".	c #5A6988",
"+	c #C0CBDC",
"@	c #3A4466",
"#	c #262B44",
"$	c #181425",
"%	c #9E2835",
"&	c #3F2832",
"                                        ",
"                                        ",
"                                        ",
"                                        ",
"          ..              ..            ",
"          ..              ..            ",
"      ++@@..              ..            ",
"      ++@@..              ..            ",
"      ++..##              ..##          ",
"      ++..##              ..##          ",
"      ..##@@@@              ..##        ",
"      ..##@@@@              ..##        ",
"      ..##@@@@              ..##$$      ",
"      ..##@@@@              ..##$$      ",
"      ..####@@..##########  ..$$$$      ",
"      ..####@@..##########  ..$$$$      ",
"      ..####..##########$$####$$$$      ",
"      ..####..##########$$####$$$$      ",
"      ++##..##########$$$$##$$$$        ",
"      ++##..##########$$$$##$$$$        ",
"      ++@@..##########$$$$$$$$          ",
"      ++@@..##########$$$$$$$$          ",
"      ++....##########$$$$$$$$          ",
"      ++....##########$$$$$$$$          ",
"      ++@@$$$$$$$$$$$$$$$$$$$$          ",
"      ++@@$$$$$$$$$$$$$$$$$$$$          ",
"      ++....##########$$$$$$$$          ",
"      ++....##########$$$$$$$$          ",
"      ++@@..##########@@######$$$$$$    ",
"      ++@@..##########@@######$$$$$$    ",
"  %%&&++&&..##########@@######$$$$$$    ",
"  %%&&++&&..##########@@######$$$$$$    ",
"  %%&&&&&&##$$$$$$$$$$@@######$$$$$$    ",
"  %%&&&&&&##$$$$$$$$$$@@######$$$$$$    ",
"    %%&&&&##..######$$@@######$$$$$$    ",
"    %%&&&&##..######$$@@######$$$$$$    ",
"        ##$$$$$$$$$$$$@@######$$$$$$    ",
"        ##$$$$$$$$$$$$@@######$$$$$$    ",
"        ##$$..########@@######$$$$$$    ",
"        ##$$..########@@######$$$$$$    ",
"        ++@@..########$$@@####$$$$      ",
"        ++@@..########$$@@####$$$$      ",
"                $$$$  $$$$@@##$$        ",
"                $$$$  $$$$@@##$$        ",
"                $$$$                    ",
"                $$$$                    ",
"              ##$$$$                    ",
"              ##$$$$                    "};
