/* XPM */
static char * move_right_1_xpm[] = {
"40 48 8 1",
" 	c #EEB551",
".	c #5A6988",
"+	c #3A4466",
"@	c #262B44",
"#	c #C0CBDC",
"$	c #181425",
"%	c #3F2832",
"&	c #9E2835",
"              ..              ..        ",
"              ..              ..        ",
"              ..            ++..        ",
"              ..            ++..        ",
"            @@..          ++++@@..      ",
"            @@..          ++++@@..      ",
"          @@..          ++++++##@@..    ",
"          @@..          ++++++##@@..    ",
"        $$@@..          ++++++##@@..    ",
"        $$@@..          ++++++##@@..    ",
"        $$$$..  @@@@@@@@@@..++@@@@..    ",
"        $$$$..  @@@@@@@@@@..++@@@@..    ",
"        $$$$@@@@$$@@@@@@@@@@..@@@@..    ",
"        $$$$@@@@$$@@@@@@@@@@..@@@@..    ",
"          $$$$@@$$$$@@@@@@@@@@..@@      ",
"          $$$$@@$$$$@@@@@@@@@@..@@      ",
"            $$$$$$$$@@@@@@@@@@..        ",
"            $$$$$$$$@@@@@@@@@@..        ",
"            $$$$$$$$@@@@@@@@@@..        ",
"            $$$$$$$$@@@@@@@@@@..        ",
"            $$$$$$$$$$$$$$$$$$$$        ",
"            $$$$$$$$$$$$$$$$$$$$        ",
"            $$$$$$$$@@@@@@@@@@..        ",
"            $$$$$$$$@@@@@@@@@@..        ",
"          $$$$$$@@@@@@++@@@@@@..        ",
"          $$$$$$@@@@@@++@@@@@@..        ",
"          $$$$$$@@@@@@++@@@@@@..%%&&    ",
"          $$$$$$@@@@@@++@@@@@@..%%&&    ",
"          $$$$$$@@@@@@++$$$$$$@@%%&&    ",
"          $$$$$$@@@@@@++$$$$$$@@%%&&    ",
"          $$$$$$@@@@@@++@@@@..@@&&      ",
"          $$$$$$@@@@@@++@@@@..@@&&      ",
"          $$$$$$@@@@@@++$$$$$$          ",
"          $$$$$$@@@@@@++$$$$$$          ",
"          $$$$$$@@@@@@++@@@@..          ",
"          $$$$$$@@@@@@++@@@@..          ",
"            $$$$@@@@++@@@@@@..          ",
"            $$$$@@@@++@@@@@@..          ",
"            $$$$@@++    $$$$$$          ",
"            $$$$@@++    $$$$$$          ",
"            $$            $$$$          ",
"            $$            $$$$          ",
"                          $$$$          ",
"                          $$$$          ",
"                            $$@@        ",
"                            $$@@        ",
"                                        ",
"                                        "};
