/* XPM */
static char * std_2_xpm[] = {
"64 64 2 1",
" 	c #EEB551",
".	c #E39347",
"                                                                ",
"                                                                ",
"                                                                ",
"                                                                ",
"                                                                ",
"                                                                ",
"                                                                ",
"                                                                ",
"                                            ..  ........        ",
"                                            ..  ........        ",
"          ......                                ........        ",
"          ......                                ........        ",
"          ......  ..                    ......  ........        ",
"          ......  ..                    ......  ........        ",
"          ......                        ......  ........        ",
"          ......                        ......  ........        ",
"                  ....                  ......                  ",
"                  ....                  ......                  ",
"            ....  ....                          ......          ",
"            ....  ....                          ......          ",
"            ....                            ..  ......          ",
"            ....                            ..  ......          ",
"                                                ......          ",
"                                                ......          ",
"                                                                ",
"                                                                ",
"                                                                ",
"                                                                ",
"                                                                ",
"                                                                ",
"                                                                ",
"                                                                ",
"                                                                ",
"                                                                ",
"                                                                ",
"                                                                ",
"                                                                ",
"                                                                ",
"                                                                ",
"                                                                ",
"            ......                                ..            ",
"            ......                                ..            ",
"            ......                          ....                ",
"            ......                          ....                ",
"        ..  ......  ..                      ....  ......        ",
"        ..  ......  ..                      ....  ......        ",
"                                                  ......        ",
"                                                  ......        ",
"          ....  ........                ........  ......        ",
"          ....  ........                ........  ......        ",
"          ....  ........                ........                ",
"          ....  ........                ........                ",
"                ........                ........  ..            ",
"                ........                ........  ..            ",
"                ........                ........                ",
"                ........                ........                ",
"                                                                ",
"                                                                ",
"                                                                ",
"                                                                ",
"                                                                ",
"                                                                ",
"                                                                ",
"                                                                "};
