/* XPM */
static char * frame_0_xpm[] = {
"64 64 5 1",
" 	c #EEB551",
".	c #BFB8B4",
"+	c #918D8D",
"@	c #353540",
"#	c #CB0000",
"                                                                ",
"                                                                ",
"                                                                ",
"                                                                ",
"                                                                ",
"                                                                ",
"                                                                ",
"                                                                ",
"                                                                ",
"                                                                ",
"        ....++....................++....                        ",
"        ....++....................++....                        ",
"        ..++++++++++++....++++++++++++..                        ",
"        ..++++++++++++....++++++++++++..                        ",
"        ..++@@@@@@@@++....++@@@@@@@@++..                        ",
"        ..++@@@@@@@@++....++@@@@@@@@++..                        ",
"        ..++@@@@@@@@++....++@@@@@@@@++..                        ",
"        ..++@@@@@@@@++....++@@@@@@@@++..                        ",
"        ..++@@@@##@@++....++@@@@##@@++..                        ",
"        ..++@@@@##@@++....++@@@@##@@++..                        ",
"        ++++@@@@@@@@++++++++@@@@@@@@++++                        ",
"        ++++@@@@@@@@++++++++@@@@@@@@++++                        ",
"        ..++++++++++++....++++++++++++..                        ",
"        ..++++++++++++....++++++++++++..                        ",
"        ........++..........++..........                        ",
"        ........++..........++..........                        ",
"        ........++..........++....................++....        ",
"        ........++..........++....................++....        ",
"        ..++++++++++++....++++++++++++....++++++++++++..        ",
"        ..++++++++++++....++++++++++++....++++++++++++..        ",
"        ++++@@@@@@@@++++++++@@@@@@@@++....++@@@@@@@@++..        ",
"        ++++@@@@@@@@++++++++@@@@@@@@++....++@@@@@@@@++..        ",
"        ..++@@@@@@@@++....++@@@@@@@@++....++@@@@@@@@++..        ",
"        ..++@@@@@@@@++....++@@@@@@@@++....++@@@@@@@@++..        ",
"        ..++@@@@##@@++....++@@@@##@@++....++@@@@##@@++..        ",
"        ..++@@@@##@@++....++@@@@##@@++....++@@@@##@@++..        ",
"        ..++@@@@@@@@++....++@@@@@@@@++++++++@@@@@@@@++++        ",
"        ..++@@@@@@@@++....++@@@@@@@@++++++++@@@@@@@@++++        ",
"        ..++++++++++++....++++++++++++....++++++++++++..        ",
"        ..++++++++++++....++++++++++++....++++++++++++..        ",
"        ....++..................++............++........        ",
"        ....++..................++............++........        ",
"                        ........++............++........        ",
"                        ........++............++........        ",
"                        ..++++++++++++....++++++++++++..        ",
"                        ..++++++++++++....++++++++++++..        ",
"                        ++++@@@@@@@@++++++++@@@@@@@@++++        ",
"                        ++++@@@@@@@@++++++++@@@@@@@@++++        ",
"                        ..++@@@@@@@@++....++@@@@@@@@++..        ",
"                        ..++@@@@@@@@++....++@@@@@@@@++..        ",
"                        ..++@@@@##@@++....++@@@@##@@++..        ",
"                        ..++@@@@##@@++....++@@@@##@@++..        ",
"                        ..++@@@@@@@@++....++@@@@@@@@++..        ",
"                        ..++@@@@@@@@++....++@@@@@@@@++..        ",
"                        ..++++++++++++....++++++++++++..        ",
"                        ..++++++++++++....++++++++++++..        ",
"                        ....++....................++....        ",
"                        ....++....................++....        ",
"                                                                ",
"                                                                ",
"                                                                ",
"                                                                ",
"                                                                ",
"                                                                "};
