/* XPM */
static char * trap_xpm[] = {
"64 64 12 1",
" 	c #EEB551",
".	c #C0CBDC",
"+	c #3A4466",
"@	c #5A6988",
"#	c #BFB8B4",
"$	c #918D8D",
"%	c #353540",
"&	c #CB0000",
"*	c #262B44",
"=	c #3F2832",
"-	c #9E2835",
";	c #181425",
"               ....                                             ",
"               ++....                                           ",
"               ++....                                           ",
"               ++++....                                         ",
"               ++++....                                         ",
"               ++++++....                                       ",
"               ++++++....                                       ",
"               ++++++++....                                     ",
"               ++++++++....                                     ",
"                 ++++++++..@@              @@                   ",
"        ####$$%%%++++++++..@@#%%%%%%####   @@                   ",
"        ####$$%%%%%++++++++@@..%%%%%####   @@                   ",
"        ##$$%%%%&&%++++++++@@..%&&%%$$##   @@                   ",
"        ##$$%%%%&&%%$@@@@**@@....&%%$$##   **@@                 ",
"        ##$$%%&&&&%%$@@@@**@@....&%%$$##   **@@                 ",
"        ##$$%%&&&&%%$$#**@@++++....==--#     **@@               ",
"        ##$$%%&&&&%%$$#**@@++++....==--#     **@@               ",
"        ##$$%%&&&&%%$;;**@@@@@@++======--    **@@               ",
"        ##$$%%&&&&%%$;;**@@@@@@++======--    **@@               ",
"        ##$$%%&&&&%%$;;;;@@++**********@@  ****@@               ",
"        $$$$%%%%%%%%$;;;;@@++**********@@  ****@@               ",
"        $$$$%%%%%%%%$;;;;****;;**********@@****@@               ",
"        ##$$$$$$$$$$$;;;;****;;**********@@****@@               ",
"        ##$$$$$$$$$$$$#;;;;**;;;;**********@@**                 ",
"        ########$$#####;;;;**;;;;**********@@**                 ",
"        ########$$#######;;;;;;;;**********@@                   ",
"        ######%%%%%%#####;;;;;;;;**********@@#%%%%%%####        ",
"        ######%%%%%%#####;;;;;;;;**********@@#%%%%%%####        ",
"        ##$$%%%%&&%%$$###;;;;;;;;**********@@%%%&&%%$$##        ",
"        ##$$%%%%&&%%$$###;;;;;;;;;;;;;;;;;;;;%%%&&%%$$##        ",
"        $$$$%%&&&&%%$$$$$;;;;;;;;;;;;;;;;;;;;%&&&&%%$$##        ",
"        $$$$%%&&&&%%$$$$$;;;;;;;;**********@@%&&&&%%$$##        ",
"        ##$$%%&&&&%%$$###;;;;;;;;**********@@%&&&&%%$$##        ",
"        ##$$%%&&&&%%$$####$;;;;;;**********@@%&&&&%%$$##        ",
"        ##$$%%&&&&%%$$####$;;;;;;**********@@%&&&&%%$$##        ",
"        ##$$%%&&&&%%$;;;;;;******++********@@%&&&&%%$$##        ",
"        ##$$%%%%%%%%$;;;;;;******++********@@%%%%%%%$$$$        ",
"        ##$$%%%%%%%%$;;;;;;******++;;;;;;;;**%%%%%%%$$$$        ",
"        ##$$$$$$$$$$$;;;;;;******++;;;;;;;;**$$$$$$$$$##        ",
"        ##$$$$$$$$$$$;;;;;;******++******@@**$$$$$$$$$##        ",
"        ####$$#######;;;;;;******++******@@**#$$########        ",
"        ####$$#######;;;;;;******++;;;;;;;;###$$########        ",
"                     ;;;;;;******++;;;;;;;;###%%%%%%####        ",
"                     ;;;;;;******++******@@###%%%%%%####        ",
"                     ;;;;;;******++******@@$%%%%&&%%$$##        ",
"                     ;;;;;;******++******@@$%%%%&&%%$$##        ",
"                     ;;;;;;******++******@@$%%&&&&%%$$$$        ",
"                       ;;;;****++&%%$;;;;$$$%%&&&&%%$$$$        ",
"                       ;;;;****++&%%$;;;;#$$%%&&&&%%$$##        ",
"                        #;;**++&&&%%$;;;;#$$%%&&&&%%$$##        ",
"                        #;;**++&&&%%$;;;;#$$%%&&&&%%$$##        ",
"                        ##$****&&&%%$;;;;**$%%&&&&%%$$##        ",
"                        ##$****%%%%%$;;;;**$%%%%%%%%$$##        ",
"                        ##$$%%%%%%%%$$####$$%%%%%%%%$$##        ",
"                        ##$$$$$$$$$$$$####$$$$$$$$$$$$##        ",
"                        ##$$$$$$$$$$$$####$$$$$$$$$$$$##        ",
"                        ####$$####################$$####        ",
"                        ####$$####################$$####        ",
"                                                                ",
"                                                                ",
"                                                                ",
"                                                                ",
"                                                                ",
"                                                                "};
