/* XPM */
static char * 3_xpm[] = {
"36 44 3 1",
" 	c #000000",
".	c #5C699F",
"+	c #D14D00",
"                            ........",
"                            ........",
"                            ........",
"                            ........",
"    ++++++++++++++++++++        ....",
"    ++++++++++++++++++++        ....",
"    ++++++++++++++++++++        ....",
"    ++++++++++++++++++++        ....",
"    ++++++++++++++++++++++++        ",
"    ++++++++++++++++++++++++        ",
"    ++++++++++++++++++++++++        ",
"    ++++++++++++++++++++++++        ",
"                    ++++++++        ",
"                    ++++++++        ",
"                    ++++++++        ",
"                    ++++++++        ",
"....        ++++++++++++++++        ",
"....        ++++++++++++++++        ",
"....        ++++++++++++++++        ",
"....        ++++++++++++++++        ",
"........    ++++++++++++            ",
"........    ++++++++++++            ",
"........    ++++++++++++            ",
"........    ++++++++++++            ",
"                    ++++++++        ",
"                    ++++++++        ",
"                    ++++++++        ",
"                    ++++++++        ",
"    ++++++++++++++++++++++++        ",
"    ++++++++++++++++++++++++        ",
"    ++++++++++++++++++++++++        ",
"    ++++++++++++++++++++++++        ",
"    ++++++++++++++++++++            ",
"    ++++++++++++++++++++            ",
"    ++++++++++++++++++++            ",
"    ++++++++++++++++++++            ",
"                                    ",
"                                    ",
"                                    ",
"                                    ",
"....                            ....",
"....                            ....",
"....                            ....",
"....                            ...."};
