/* XPM */
static char * 8_xpm[] = {
"36 44 3 1",
" 	c #5C699F",
".	c #000000",
"+	c #D14D00",
"    ........................        ",
"    ........................        ",
"    ........................        ",
"    ........................        ",
"........++++++++++++++++........    ",
"........++++++++++++++++........    ",
"........++++++++++++++++........    ",
"........++++++++++++++++........    ",
"....++++++++++++++++++++++++........",
"....++++++++++++++++++++++++........",
"....++++++++++++++++++++++++........",
"....++++++++++++++++++++++++........",
"....++++++++........++++++++........",
"....++++++++........++++++++........",
"....++++++++........++++++++........",
"....++++++++........++++++++........",
"........++++++++++++++++............",
"........++++++++++++++++............",
"........++++++++++++++++............",
"........++++++++++++++++............",
"....++++++++++++++++++++++++........",
"....++++++++++++++++++++++++........",
"....++++++++++++++++++++++++........",
"....++++++++++++++++++++++++........",
"....++++++++........++++++++........",
"....++++++++........++++++++........",
"....++++++++........++++++++........",
"....++++++++........++++++++........",
"....++++++++++++++++++++++++........",
"....++++++++++++++++++++++++........",
"....++++++++++++++++++++++++........",
"....++++++++++++++++++++++++........",
"........++++++++++++++++............",
"........++++++++++++++++............",
"........++++++++++++++++............",
"........++++++++++++++++............",
"    ................................",
"    ................................",
"    ................................",
"    ................................",
"        ........................    ",
"        ........................    ",
"        ........................    ",
"        ........................    "};
