/* XPM */
static char * player_xpm[] = {
"19 25 8 1",
" 	c None",
".	c #04193F",
"+	c #0FEFFB",
"@	c #0696DB",
"#	c #03396B",
"$	c #FCFEFE",
"%	c #C3242F",
"&	c #E7333B",
"        .....      ",
"      ..+++@@..    ",
"     .++++++@##.   ",
"    .+++++++..##.  ",
"   .++++++++..###. ",
"   .+++...++@@##.. ",
"  .+++..$$.+@@@..$.",
"  .+++..$$.+@@@..$.",
"  .+++..$$.+@@@..$.",
"  .++++...+@@@@#...",
"  .++++++++@@@@###.",
"   .++++++@@@@###. ",
"   .++++@@@@..###. ",
"   ..@@@@@@@@@##.  ",
"   ..%%@@@@@@###.  ",
"   .@#&%%%#####%.  ",
"   .@@#.&&%%%%%&.  ",
"   .@@@@.&&&&&&.   ",
"  .#@@@@#&&&&&&.   ",
" .@@#####.&&&&.    ",
".@@@@@@@@@.&&..    ",
".@@@@@@@.##....    ",
".@@@@@@..#####.    ",
" .@@@@. ......     ",
"  ....             "};
