/* XPM */
static char * entry_xpm[] = {
"64 64 12 1",
" 	c #EEB551",
".	c #5A6988",
"+	c #3A4466",
"@	c #C0CBDC",
"#	c #918D8D",
"$	c #262B44",
"%	c #353540",
"&	c #181425",
"*	c #604B3D",
"=	c #735B42",
"-	c #3F2832",
";	c #9E2835",
"                                                                ",
"                                                                ",
"                                                                ",
"                                                                ",
"                                                                ",
"                                                                ",
"                                                                ",
"                                                                ",
"                                                                ",
"                                                                ",
"                                                                ",
"                                                                ",
"                                                                ",
"                        ..              ..++@@                  ",
"                        ..              ..++@@                  ",
"                        ..              ..++@@                  ",
"                        ..              ..++@@                  ",
"                  ####$$..############++$$..@@#                 ",
"                  ####$$..############++$$..@@#                 ",
"                  ##$$..%%%%%%%%%%%%%%++++$$..#                 ",
"                  ##$$..%%%%%%%%%%%%%%++++$$..#                 ",
"                  &&$$..**************++++$$..#                 ",
"                  &&$$..===**=======**++++$$..#                 ",
"                  &&&&..==$$$$$$$$$$..++$$$$..#                 ",
"                  &&&&..==$$$$$$$$$$..++$$$$..#                 ",
"                  &&&&$$$$&&$$$$$$$$$$..$$$$..#                 ",
"                  &&&&$$$$&&$$$$$$$$$$..$$$$..#                 ",
"                  ##&&&&$$&&&&$$$$$$$$$$..$$@@#                 ",
"                  ##&&&&$$&&&&$$$$$$$$$$..$$@@#                 ",
"                  ##%%&&&&&&&&$$$$$$$$$$....@@#                 ",
"                  ##%%&&&&&&&&$$$$$$$$$$....@@#                 ",
"                  ##%%&&&&&&&&$$$$$$$$$$..++@@#                 ",
"                  ##%%&&&&&&&&$$$$$$$$$$..++@@#                 ",
"                  ##%%&&&&&&&&&&&&&&&&&&&&..@@#                 ",
"                  ##%%&&&&&&&&&&&&&&&&&&&&..@@#                 ",
"                &&&&&&$$$$$$++$$$$$$$$$$..++@@#                 ",
"                &&&&&&$$$$$$++$$$$$$$$$$..++@@#                 ",
"                &&&&&&$$$$$$++$$$$$$$$$$..--@@--;;              ",
"                &&&&&&$$$$$$++$$$$$$$$$$..--@@--;;              ",
"                &&&&&&$$$$$$++$$$$$$$$$$..------;;              ",
"                &&&&&&$$$$$$++$$$$$$$$$$..------;;              ",
"                &&&&&&$$$$$$++&&&&&&&&&&$$----;;                ",
"                &&&&&&$$$$$$++&&&&&&&&&&$$----;;                ",
"                &&&&&&$$$$$$++&&&&&&&&&&&&$$%##                 ",
"                &&&&&&$$$$$$++&&&&&&&&&&&&$$###                 ",
"                &&&&&&$$$$$$++$$$$$$$$..&&$$###                 ",
"                &&&&&&$$$$$$++$$$$$$$$..&&$$                    ",
"                  &&&&$$$$++&&$$$$$$$$..++@@                    ",
"                  &&&&$$$$++&&$$$$$$$$..++@@                    ",
"                    &&$$++&&&&    &&&&                          ",
"                    &&$$++&&&&    &&&&                          ",
"                        $$$$      &&&&$$                        ",
"                        $$$$      &&&&$$                        ",
"                                                                ",
"                                                                ",
"                                                                ",
"                                                                ",
"                                                                ",
"                                                                ",
"                                                                ",
"                                                                ",
"                                                                ",
"                                                                ",
"                                                                "};
