/* XPM */
static char * exit_closed_xpm[] = {
"64 64 15 1",
" 	c #EEB551",
".	c #353540",
"+	c #BFB8B4",
"@	c #EDE4DA",
"#	c #918D8D",
"$	c #5A6988",
"%	c #3A4466",
"&	c #C0CBDC",
"*	c #636167",
"=	c #262B44",
"-	c #604B3D",
";	c #181425",
">	c #735B42",
",	c #3F2832",
"'	c #9E2835",
"                                                                ",
"                                                                ",
"                                                                ",
"                                                                ",
"            ........................................            ",
"            ........................................            ",
"            ..++++++++++++++++++++++++++++++++@@@@..            ",
"            ..++++++++++++++++++++++++++++++++@@@@..            ",
"        ......++++++++++++++++++++++++++++++++++++......        ",
"        ......++++++++++++++++++++++++++++++++++++......        ",
"        ..++..++++++++++++++++++++++++++++++++++++..@@..        ",
"        ..++..++++++++++++++++++++++++++++++++++++..@@..        ",
"        ..++..####################################..++..        ",
"        ..++..########$$##############$$%%&&######..++..        ",
"      ....++..********$$**************$$%%&&******..++....      ",
"      ....++..********$$**************$$%%&&******..++....      ",
"      ..##############$$##############$$%%&&############..      ",
"      ..############==$$############%%==$$&&############..      ",
"      ..************==$$**..........%%==$$&&************..      ",
"      ..**********==$$****..........%%%%==$$************..      ",
"      ..######**##==$$####..--....--%%%%==$$####**######..      ",
"      ..######**;;==$$####..--....--%%%%==$$####**######..      ",
"      ..********;;==$$......--....--%%%%==$$************..      ",
"      ..********;;;;$$..==========$$%%====$$************..      ",
"  ......########;;;;$$--==========$$%%====$$############......  ",
"  ......########;;;;====;;==========$$====$$############......  ",
"....++..********;;;;====;;==========$$====$$....********..++....",
"....++..********..;;;;==;;;;==========$$==&&....********..++....",
"..##++##########..;;;;==;;;;==========$$==&&--..##########++##..",
"..##++##########..--;;;;;;;;==========$$$$&&--..##########++##..",
"..##************..>>;;;;;;;;==========$$$$&&>>..************##..",
"..##************..>>;;;;;;;;==========$$%%&&>>..************##..",
"..**############..--;;;;;;;;==========$$%%&&--..############**..",
"..**############..--;;;;;;;;;;;;;;;;;;;;$$&&--..############**..",
"..**************..>>;;;;;;;;;;;;;;;;;;;;$$&&>>..**************..",
"..************;;;;;;======%%==========$$%%&&>>..**************..",
"##########**##;;;;;;======%%==========$$%%&&>>..####**##########",
"##########**##;;;;;;======%%==========$$,,&&,,''####**##########",
"**************;;;;;;======%%==========$$,,&&,,''****************",
"**************;;;;;;======%%==========$$,,,,,,''****************",
"##############;;;;;;======%%==========$$,,,,,,''################",
"##############;;;;;;======%%;;;;;;;;;;==,,,,''..################",
"**************;;;;;;======%%;;;;;;;;;;==,,,,''..****************",
"**************;;;;;;======%%;;;;;;;;;;;;==......****************",
"####**########;;;;;;======%%;;;;;;;;;;;;==    ..##########**####",
"####**########;;;;;;======%%========$$;;==    ..##########**####",
"**************;;;;;;======%%========$$;;==    ..****************",
"****************;;;;====%%;;========$$%%&&    ..****************",
"                ;;;;====%%;;========$$%%&&                      ",
"                  ;;==%%;;;;    ;;;;                            ",
"                  ;;==%%;;;;    ;;;;                            ",
"                      ====      ;;;;==                          ",
"                      ====      ;;;;==                          ",
"                                                                ",
"                                                                ",
"                                                                ",
"                                                                ",
"                                                                ",
"                                                                ",
"                                                                ",
"                                                                ",
"                                                                ",
"                                                                ",
"                                                                "};
