/* XPM */
static char * closed_xpm[] = {
"64 64 8 1",
" 	c #EEB551",
".	c #353540",
"+	c #EDE4DA",
"@	c #BFB8B4",
"#	c #604B3D",
"$	c #735B42",
"%	c #918D8D",
"&	c #4D3F38",
"                                                                ",
"                                                                ",
"                                                                ",
"                                                                ",
"                                                                ",
"                                                                ",
"                                                                ",
"                                                                ",
"                                                                ",
"                                                                ",
"                                                                ",
"                                                                ",
"                                                                ",
"                                                                ",
"                                                                ",
"                                                                ",
"                                                                ",
"                                                                ",
"                                                                ",
"                                                                ",
"                                                                ",
"                                                                ",
"                                                                ",
"                                                                ",
"                   ..........................                   ",
"                   ..........................                   ",
"                   ..++++++++++++++++++++++..                   ",
"                   ..@@@@@@@@@@@@@@@@@@++++..                   ",
"                   ..@@#######@@@@#######@@..                   ",
"                   ..@@$$$$$$$@@@@$$$$$$#@@..                   ",
"                   ..@@$$$$$$$@@@@$$$$$$#@@..                   ",
"                   ..%%#######    #######%%..                   ",
"                   ..%%#######    #######%%..                   ",
"                   ..%%%%%%%%%%%%%%%%%%%%%%..                   ",
"                   ..%%&&&&&&&&%%&&&&&&&&%%..                   ",
"                   ..%%####&###%%###&####%%..                   ",
"                   ..%%####&###%%###&####%%..                   ",
"                   ..%%%%%%%%%%%%%%%%%%%%%%..                   ",
"                   ..%%%%%%%%%%%%%%%%%%%%%%..                   ",
"                   ..........................                   ",
"                   ..........................                   ",
"                                                                ",
"                                                                ",
"                                                                ",
"                                                                ",
"                                                                ",
"                                                                ",
"                                                                ",
"                                                                ",
"                                                                ",
"                                                                ",
"                                                                ",
"                                                                ",
"                                                                ",
"                                                                ",
"                                                                ",
"                                                                ",
"                                                                ",
"                                                                ",
"                                                                ",
"                                                                ",
"                                                                ",
"                                                                ",
"                                                                "};
