/* XPM */
static char * collect_22_xpm[] = {
"64 64 18 1",
" 	c #EEB551",
".	c #C0CBDC",
"+	c #3A4466",
"@	c #5A6988",
"#	c #262B44",
"$	c #181425",
"%	c #353540",
"&	c #BFB8B4",
"*	c #3F2832",
"=	c #743F39",
"-	c #918D8D",
";	c #4D3F38",
">	c #8BB9E0",
",	c #A8D7ED",
"'	c #FFFFFF",
")	c #604B3D",
"!	c #9E2835",
"~	c #E43B44",
"                                                                ",
"                                                                ",
"                                                                ",
"                                                                ",
"                                                                ",
"                                                                ",
"                                                                ",
"                                                                ",
"                                                                ",
"                                ..++@@              @@          ",
"                                ..++@@              @@          ",
"                                ..++@@              @@          ",
"                                ..++@@              @@          ",
"                                ..@@##++            @@##        ",
"                                ..@@##++            @@##        ",
"                                @@##++++              @@##      ",
"                                @@##++++              @@##      ",
"                                @@##++++              @@##$$    ",
"                   %%%%%%%%%%%%%@@##++++%%%%%         @@##$$    ",
"                   %%%%%%%%%%%%%@@####++@@##########  @@$$$$    ",
"           $$$$    %%&&&&&&&&&  @@####++@@##########  @@$$$$    ",
"           $$$$    %%&&&&&&&&&  @@####@@##########$$####$$$$    ",
"         $$**==$$  %%---------  @@####@@##########$$####$$$$    ",
"         $$**==$$  %%--;;;;;;;;-..##@@##########$$$$##$$$$      ",
"       $$>>,,,,''$$%%--)))));))-..##@@##########$$$$##$$$$      ",
"       $$>>,,,,''$$%%--)))));))-..@@@@##########$$$$$$$$        ",
"       $$>>**==,,$$%%--)))));))-..@@@@##########$$$$$$$$        ",
"       $$>>**==,,$$%%&&---------..++@@##########$$$$$$$$        ",
"         $$**==$$  %%&&%%%%%%%%%..++@@##########$$$$$$$$        ",
"         $$**==$$  %%&&%%%%%%%%%..@@$$$$$$$$$$$$$$$$$$$$        ",
"         $$,,''$$  %%&&%%%%%%%%%..@@$$$$$$$$$$$$$$$$$$$$        ",
"         $$,,''$$  %%&&%%%%%%%%%..++@@##########++######$$$$$$  ",
"         $$,,,,$$  %%&&&&&&&&&&&..++@@##########++######$$$$$$  ",
"         $$,,,,$$  %%-------!!**..**@@##########++######$$$$$$  ",
"         $$>>,,$$  %%-------!!**..**@@##########++######$$$$$$  ",
"         $$>>,,$$  %%--;;;;;!!******@@##########++######$$$$$$  ",
"         $$>>,,$$  %%--)))))!!******@@##########++######$$$$$$  ",
"         $$>>,,$$  %%--)))));)!!****##$$$$$$$$$$++######$$$$$$  ",
"         $$~~,,$$  %%---------!!****##$$$$$$$$$$++######$$$$$$  ",
"         $$~~,,$$  %%-------------####@@######$$++######$$$$$$  ",
"         $$~~~~$$  %%%%%%%%%%%%%%%####@@######$$++######$$$$$$  ",
"         $$~~~~$$  %%%%%%%%%%%%%%%##$$$$$$$$$$$$++######$$$$$$  ",
"         $$~~!!$$                 ##$$$$$$$$$$$$++######$$$$$$  ",
"         $$~~!!$$                 ..++@@########$$++####$$$$    ",
"         $$!!~~$$                 ..++@@########$$++####$$$$    ",
"         $$!!~~$$                     @@########$$$$++##$$      ",
"         $$!!~~$$                     @@########$$$$++##$$      ",
"         $$!!~~$$                       $$$$    $$$$$$          ",
"         $$!!!!$$                       $$$$    $$$$$$          ",
"         $$!!!!$$                       $$$$      $$$$          ",
"           $$$$                         $$$$      $$$$          ",
"           $$$$                       ##$$$$      ####          ",
"                                      ##$$$$      ####          ",
"                                                                ",
"                                                                ",
"                                                                ",
"                                                                ",
"                                                                ",
"                                                                ",
"                                                                ",
"                                                                ",
"                                                                ",
"                                                                ",
"                                                                "};
