/* XPM */
static char * collect_20_xpm[] = {
"64 64 19 1",
" 	c #EEB551",
".	c #C0CBDC",
"+	c #3A4466",
"@	c #5A6988",
"#	c #262B44",
"$	c #181425",
"%	c #353540",
"&	c #BFB8B4",
"*	c #8B9BB4",
"=	c #918D8D",
"-	c #4D3F38",
";	c #604B3D",
">	c #FEAE34",
",	c #FEE761",
"'	c #9E2835",
")	c #3F2832",
"!	c #F77622",
"~	c #E43B44",
"{	c #FFFFFF",
"                                                                ",
"                                                                ",
"                                                                ",
"                                                                ",
"                                                                ",
"                                                                ",
"                                                                ",
"                                                                ",
"                                                                ",
"                                ..++@@              @@          ",
"                                ..++@@              @@          ",
"                                ..++@@              @@          ",
"                                ..++@@              @@          ",
"                                ..@@##++            @@##        ",
"                                ..@@##++            @@##        ",
"                                @@##++++              @@##      ",
"                                @@##++++              @@##      ",
"                                @@##++++              @@##$$    ",
"                   %%%%%%%%%%%%%@@##++++%%%%%         @@##$$    ",
"                   %%%%%%%%%%%%%@@####++@@##########  @@$$$$    ",
"$$$$$$$$           %%&&&&&&&&&  @@####++@@##########  @@$$$$    ",
"$$$$$$$$           %%&&&&&&&&&  @@####@@##########$$####$$$$    ",
"$$****..$$         %%=========  @@####@@##########$$####$$$$    ",
"$$****..$$         %%==--------=..##@@##########$$$$##$$$$      ",
"$$@@****..$$       %%==;;;;;-;;=..##@@##########$$$$##$$$$      ",
"$$@@****..$$       %%==;;;;;-;;=..@@@@##########$$$$$$$$        ",
"$$++@@****..$$     %%==;;;;;-;;=..@@@@##########$$$$$$$$        ",
"$$++@@****..$$     %%&&=========..++@@##########$$$$$$$$        ",
"  $$++@@****..$$   %%&&%%%%%%%%%..++@@##########$$$$$$$$        ",
"  $$++@@****..$$   %%&&%%%%%%%%%..@@$$$$$$$$$$$$$$$$$$$$        ",
"    $$++@@******$$$$%&&%%%%%%%%%..@@$$$$$$$$$$$$$$$$$$$$        ",
"    $$++@@******$$$$%&&%%%%%%%%%..++@@##########++######$$$$$$  ",
"      $$++@@@@$$>>,,$$&&&&&&&&&&..++@@##########++######$$$$$$  ",
"      $$++@@@@$$>>,,$$======''))..))@@##########++######$$$$$$  ",
"        $$++$$@@$$>>,,$$====''))..))@@##########++######$$$$$$  ",
"        $$++$$@@$$>>,,$$----''))))))@@##########++######$$$$$$  ",
"          $$,,$$@@$$>>,,$$;;''))))))@@##########++######$$$$$$  ",
"          $$,,$$@@$$>>,,$$;;-;''))))##$$$$$$$$$$++######$$$$$$  ",
"          $$>>,,$$++$$>>!!$$$$''))))##$$$$$$$$$$++######$$$$$$  ",
"          $$>>,,$$++$$>>!!$$$$====####@@######$$++######$$$$$$  ",
"            $$>>,,$$++$$$$>>!!$$%%####@@######$$++######$$$$$$  ",
"            $$>>,,$$++$$$$>>!!$$%%##$$$$$$$$$$$$++######$$$$$$  ",
"              $$!!>>$$~~{{$$$$    ##$$$$$$$$$$$$++######$$$$$$  ",
"              $$!!>>$$~~{{$$$$    ..++@@########$$++####$$$$    ",
"                $$!!$$''~~$$      ..++@@########$$++####$$$$    ",
"                $$!!$$''~~$$          @@########$$$$++##$$      ",
"                  $$>>$$$$))$$        @@########$$$$++##$$      ",
"                  $$>>$$$$))$$          $$$$    $$$$$$          ",
"                  $$!!$$  $$))$$        $$$$    $$$$$$          ",
"                  $$!!$$  $$))$$        $$$$      $$$$          ",
"                    $$      $$$$        $$$$      $$$$          ",
"                    $$      $$$$      ##$$$$      ####          ",
"                                      ##$$$$      ####          ",
"                                                                ",
"                                                                ",
"                                                                ",
"                                                                ",
"                                                                ",
"                                                                ",
"                                                                ",
"                                                                ",
"                                                                ",
"                                                                ",
"                                                                "};
