/* XPM */
static char * collect_21_xpm[] = {
"64 64 18 1",
" 	c #EEB551",
".	c #C0CBDC",
"+	c #3A4466",
"@	c #5A6988",
"#	c #262B44",
"$	c #181425",
"%	c #353540",
"&	c #BFB8B4",
"*	c #FEAE34",
"=	c #FEE761",
"-	c #E43B44",
";	c #FFFFFF",
">	c #9E2835",
",	c #F77622",
"'	c #3F2832",
")	c #4D3F38",
"!	c #604B3D",
"~	c #918D8D",
"                                                                ",
"                                                                ",
"                                                                ",
"                                                                ",
"                                                                ",
"                                                                ",
"                                                                ",
"                                                                ",
"                                                                ",
"                                ..++@@              @@          ",
"                                ..++@@              @@          ",
"                                ..++@@              @@          ",
"                                ..++@@              @@          ",
"                                ..@@##++            @@##        ",
"                                ..@@##++            @@##        ",
"                                @@##++++              @@##      ",
"                                @@##++++              @@##      ",
"                                @@##++++              @@##$$    ",
"                   %%%%%%%%%%%%%@@##++++%%%%%         @@##$$    ",
"                   %%%%%%%%%%%%%@@####++@@##########  @@$$$$    ",
"$$$$$$$$    $$$$$$$$%&&&$$$$$$$$@@####++@@##########  @@$$$$    ",
"$$$$$$$$    $$$$$$$$%&&&$$$$$$$$@@####@@##########$$####$$$$    ",
"$$**====$$$$----;;;;$$$$**====$$@@####@@##########$$####$$$$    ",
"$$**====$$$$----;;;;$$$$**====$$..##@@##########$$$$##$$$$      ",
"$$******$$>>--------;;$$******$$..##@@##########$$$$##$$$$      ",
"$$******$$>>--------;;$$******$$..@@@@##########$$$$$$$$        ",
"$$,,**$$##$$>>------$$##$$,,**$$..@@@@##########$$$$$$$$        ",
"$$,,**$$##$$>>------$$##$$,,**$$..++@@##########$$$$$$$$        ",
"$$,,$$##$$==$$>>--$$==$$##$$,,$$..++@@##########$$$$$$$$        ",
"$$,,$$##$$==$$>>--$$==$$##$$,,$$..@@$$$$$$$$$$$$$$$$$$$$        ",
"$$$$##$$==**$$>>>>$$**==$$##$$$$..@@$$$$$$$$$$$$$$$$$$$$        ",
"$$$$##$$==**$$>>>>$$**==$$##$$$$..++@@##########++######$$$$$$  ",
"$$##$$****$$##$$$$##$$****$$##$$..++@@##########++######$$$$$$  ",
"$$##$$****$$##$$$$##$$****$$##$$..''@@##########++######$$$$$$  ",
"  $$,,****$$##$$$$##$$,,****$$''..''@@##########++######$$$$$$  ",
"  $$,,****$$##$$$$##$$,,****$$''''''@@##########++######$$$$$$  ",
"    $$,,$$##$$++@@$$##$$,,$$>>''''''@@##########++######$$$$$$  ",
"    $$,,$$##$$++@@$$##$$,,$$)!>>''''##$$$$$$$$$$++######$$$$$$  ",
"    $$,,$$##$$++++$$##$$,,$$~~>>''''##$$$$$$$$$$++######$$$$$$  ",
"    $$,,$$##$$++++$$##$$,,$$~~~~~~####@@######$$++######$$$$$$  ",
"      $$##$$##++++@@$$##$$%%%%%%%%####@@######$$++######$$$$$$  ",
"      $$##$$##++++@@$$##$$%%%%%%%%##$$$$$$$$$$$$++######$$$$$$  ",
"      $$##$$####++++$$##$$        ##$$$$$$$$$$$$++######$$$$$$  ",
"      $$##$$####++++$$##$$        ..++@@########$$++####$$$$    ",
"        $$####$$$$##++$$          ..++@@########$$++####$$$$    ",
"        $$####$$$$##++$$              @@########$$$$++##$$      ",
"        $$##$$**==$$##$$              @@########$$$$++##$$      ",
"        $$##$$**==$$##$$                $$$$    $$$$$$          ",
"          $$,,****==$$                  $$$$    $$$$$$          ",
"          $$,,****==$$                  $$$$      $$$$          ",
"            $$$$$$$$                    $$$$      $$$$          ",
"            $$$$$$$$                  ##$$$$      ####          ",
"                                      ##$$$$      ####          ",
"                                                                ",
"                                                                ",
"                                                                ",
"                                                                ",
"                                                                ",
"                                                                ",
"                                                                ",
"                                                                ",
"                                                                ",
"                                                                ",
"                                                                "};
