/* XPM */
static char * collect_0_xpm[] = {
"64 64 15 1",
" 	c #EEB551",
".	c #C0CBDC",
"+	c #3A4466",
"@	c #5A6988",
"#	c #262B44",
"$	c #181425",
"%	c #353540",
"&	c #EDE4DA",
"*	c #BFB8B4",
"=	c #604B3D",
"-	c #735B42",
";	c #918D8D",
">	c #4D3F38",
",	c #9E2835",
"'	c #3F2832",
"                                                                ",
"                                                                ",
"                                                                ",
"                                                                ",
"                                                                ",
"                                                                ",
"                                                                ",
"                                                                ",
"                                                                ",
"                                                                ",
"                                                                ",
"                                                                ",
"                                                                ",
"                                ..++@@              @@          ",
"                                ..++@@              @@          ",
"                                ..++@@              @@          ",
"                                ..++@@              @@          ",
"                                ..@@##++            @@##        ",
"                                ..@@##++            @@##        ",
"                                @@##++++              @@##      ",
"                                @@##++++              @@##      ",
"                                @@##++++              @@##$$    ",
"                                @@##++++              @@##$$    ",
"                                @@####++@@##########  @@$$$$    ",
"                                @@####++@@##########  @@$$$$    ",
"                   %%%%%%%%%%%%%@@####@@##########$$####$$$$    ",
"                   %%%%%%%%%%%%%@@####@@##########$$####$$$$    ",
"                   %%&&&&&&&&&&&..##@@##########$$$$##$$$$      ",
"                   %%***********..##@@##########$$$$##$$$$      ",
"                   %%**=======**..@@@@##########$$$$$$$$        ",
"                   %%**-------**..@@@@##########$$$$$$$$        ",
"                   %%**-------**..++@@##########$$$$$$$$        ",
"                   %%;;=======  ..++@@##########$$$$$$$$        ",
"                   %%;;=======  ..@@$$$$$$$$$$$$$$$$$$$$        ",
"                   %%;;;;;;;;;;;..@@$$$$$$$$$$$$$$$$$$$$        ",
"                   %%;;>>>>>>>>;..++@@##########++######$$$$$$  ",
"                   %%;;====>===;..++@@##########++######$$$$$$  ",
"                   %%;;====>,,''..''@@##########++######$$$$$$  ",
"                   %%;;;;;;;,,''..''@@##########++######$$$$$$  ",
"                   %%;;;;;;;,,''''''@@##########++######$$$$$$  ",
"                   %%%%%%%%%,,''''''@@##########++######$$$$$$  ",
"                   %%%%%%%%%%%,,''''##$$$$$$$$$$++######$$$$$$  ",
"                              ,,''''##$$$$$$$$$$++######$$$$$$  ",
"                                  ##$$$$$$$$$$$$++######$$$$$$  ",
"                                  ##$$$$$$$$$$$$++######$$$$$$  ",
"                                  ##$$@@########++######$$$$$$  ",
"                                  ##$$@@########++######$$$$$$  ",
"                                  ..++@@########$$++####$$$$    ",
"                                  ..++@@########$$++####$$$$    ",
"                                        $$$$    $$$$++##$$      ",
"                                        $$$$    $$$$++##$$      ",
"                                      ##$$$$      ####          ",
"                                      ##$$$$      ####          ",
"                                                                ",
"                                                                ",
"                                                                ",
"                                                                ",
"                                                                ",
"                                                                ",
"                                                                ",
"                                                                ",
"                                                                ",
"                                                                ",
"                                                                "};
