/* XPM */
static char * collect_3_xpm[] = {
"64 64 14 1",
" 	c #EEB551",
".	c #5A6988",
"+	c #C0CBDC",
"@	c #3A4466",
"#	c #262B44",
"$	c #353540",
"%	c #BFB8B4",
"&	c #EDE4DA",
"*	c #181425",
"=	c #918D8D",
"-	c #4D3F38",
";	c #604B3D",
">	c #9E2835",
",	c #3F2832",
"                                                                ",
"                                                                ",
"                                                                ",
"                                                                ",
"                                                                ",
"                                                                ",
"                                                                ",
"                                                                ",
"                                                                ",
"                                                                ",
"                                                                ",
"                                     ..              ..         ",
"                                     ..              ..         ",
"                                 ++@@..              ..         ",
"                                 ++@@..              ..         ",
"                                 ++..##              ..##       ",
"                                 ++..##              ..##       ",
"                   $$$$$$$$$$$$$$..##@@@@$$$$          ..##     ",
"                   $$$$$$$$$$$$$$..##@@@@$$$$          ..##     ",
"                   $$%%%%%%%%%   ..##@@@@&&$$          ..##**   ",
"                   $$%%%%%%%%%   ..##@@@@&&$$          ..##**   ",
"                   $$=========   ..####@@..##########  ..****   ",
"                   $$==--------==..####@@..##########  ..****   ",
"                   $$==;;;;;-;;==..####..##########**####****   ",
"                   $$==;;;;;-;;==..####..##########**####****   ",
"                   $$==;;;;;-;;==++##..##########****##****     ",
"                   $$%%==========++##..##########****##****     ",
"                   $$%%$$$$$$$$$$++@@..##########********       ",
"                   $$%%$$$$$$$$$$++@@..##########********       ",
"                   $$%%$$$$$$$$$$++....##########********       ",
"                   $$%%$$$$$$$$$$++....##########********       ",
"                   $$%%%%%%%%%%%%++@@********************       ",
"                   $$============++@@********************       ",
"                   $$============++....##########********       ",
"                   $$==--------==++....##########********       ",
"                   $$==;;;;;-;;==++@@..##########@@######****** ",
"                   $$==;;;;;-;;==++@@..##########@@######****** ",
"                   $$========>>,,++,,..##########@@######****** ",
"                   $$========>>,,++,,..##########@@######****** ",
"                   $$$$$$$$$$>>,,,,,,##**********@@######****** ",
"                   $$$$$$$$$$>>,,,,,,##**********@@######****** ",
"                               >>,,,,,,**********@@######****** ",
"                               >>,,,,,,**********@@######****** ",
"                                   ##**..########@@######****** ",
"                                   ##**..########@@######****** ",
"                                   ##**..########@@######****** ",
"                                   ##**..########@@######****** ",
"                                   ++@@  ****    **@@####****   ",
"                                   ++@@  ****    **@@####****   ",
"                                         ****      **@@##**     ",
"                                         ****      **@@##**     ",
"                                       ##****      ####         ",
"                                       ##****      ####         ",
"                                                                ",
"                                                                ",
"                                                                ",
"                                                                ",
"                                                                ",
"                                                                ",
"                                                                ",
"                                                                ",
"                                                                ",
"                                                                ",
"                                                                "};
