/* XPM */
static char * All ground v2_4_2_xpm[] = {
"64 64 6 1",
" 	c #EEB551",
".	c #918D8D",
"+	c #353540",
"@	c #604B3D",
"#	c #735B42",
"$	c #E39347",
"                                                                ",
"                                                                ",
"                                                                ",
"                                                                ",
"                                                                ",
"                                                                ",
"                                                                ",
"                                                                ",
"                                                                ",
"                                                                ",
"                                                                ",
"                                                                ",
"                                                                ",
"                                                                ",
"                                                                ",
"                                                                ",
"                                                                ",
"                  .............................                 ",
"                  .............................                 ",
"                  ..+++++++++++++++++++++++++..                 ",
"                  ..+++++++++++++++++++++++++..                 ",
"                  ..++@@@@@@@@@@@@@@@@@@@@@++..                 ",
"                  ..++@####@@#######@@###@@++..                 ",
"                  ..++@####@@#######@@###@@++..                 ",
"                  ..++@####@@#######@@###@@++..                 ",
"                  ..++@####@@#######@@###@@++..                 ",
"                  ..++@@@@@@@#######@@###@@++..                 ",
"                  ..++@@@@@@@#######@@###@@++..                 ",
"                  ..++@####@@#######@@###@@++..                 ",
"                  ..++@####@@#######@@###@@++..                 ",
"                  ..++@####@@#######@@###@@++..                 ",
"                  ..++@####@@#######@@###@@++..                 ",
"                  ..++@####@@#######@@###@@++..                 ",
"                  ..++@####@@#######@@###@@++..                 ",
"                  ..++@####@@#######@@###@@++..                 ",
"                  ..++@####@@+++++++@@@@@@@++..                 ",
"                  ..++@####@@+++++++@@@@@@@++..                 ",
"                  ..++@####@@++   ++@@###@@++..                 ",
"                  ..++@####@@++   ++@@###@@++..                 ",
"                  ..++@####@@++$$$++@@###@@++..                 ",
"                  ..++@@@@@@@@@@@@@@@@@@@@@++..                 ",
"                  ..++@@@@@@@@@@@@@@@@@@@@@++..                 ",
"                  ..+++++++++++++++++++++++++..                 ",
"                  ..+++++++++++++++++++++++++..                 ",
"                  .............................                 ",
"                  .............................                 ",
"                                                                ",
"                                                                ",
"                                                                ",
"                                                                ",
"                                                                ",
"                                                                ",
"                                                                ",
"                                                                ",
"                                                                ",
"                                                                ",
"                                                                ",
"                                                                ",
"                                                                ",
"                                                                ",
"                                                                ",
"                                                                ",
"                                                                ",
"                                                                "};
