/* XPM */
static char * open_xpm[] = {
"64 64 7 1",
" 	c #EEB551",
".	c #353540",
"+	c #BFB8B4",
"@	c #EDE4DA",
"#	c #918D8D",
"$	c #4D3F38",
"%	c #604B3D",
"                                                                ",
"                                                                ",
"                                                                ",
"                                                                ",
"                                                                ",
"                                                                ",
"                                                                ",
"                                                                ",
"                                                                ",
"                                                                ",
"                                                                ",
"                                                                ",
"                                                                ",
"                                                                ",
"                                                                ",
"                                                                ",
"                                                                ",
"                   ..........................                   ",
"                   ..........................                   ",
"                   ..+++++++++    +++++@@@@..                   ",
"                   ..+++++++++    +++++@@@@..                   ",
"                   ..#########    #########..                   ",
"                   ..##$$$$$$$$##$$$$$$$$##..                   ",
"                   ..##%%%%%$%%##$%%%%$%%##..                   ",
"                   ..##%%%%%$%%##%%%%%$%%##..                   ",
"                   ..##%%%%%$%%##%%%%%$%%##..                   ",
"                   ..++##################++..                   ",
"                   ..++..................++..                   ",
"                   ..++..................++..                   ",
"                   ..++..................++..                   ",
"                   ..++..................++..                   ",
"                   ..++++++++++++++++++++++..                   ",
"                   ..######################..                   ",
"                   ..######################..                   ",
"                   ..##$$$$$$$$##$$$$$$$$##..                   ",
"                   ..##%%%%%$%%##%%$%%%%%##..                   ",
"                   ..##%%%%%$%%##%%$%%%%%##..                   ",
"                   ..######################..                   ",
"                   ..######################..                   ",
"                   ..........................                   ",
"                   ..........................                   ",
"                                                                ",
"                                                                ",
"                                                                ",
"                                                                ",
"                                                                ",
"                                                                ",
"                                                                ",
"                                                                ",
"                                                                ",
"                                                                ",
"                                                                ",
"                                                                ",
"                                                                ",
"                                                                ",
"                                                                ",
"                                                                ",
"                                                                ",
"                                                                ",
"                                                                ",
"                                                                ",
"                                                                ",
"                                                                ",
"                                                                "};
